<mxfile host="65bd71144e">
    <diagram id="1UVBbD5v9CDg8uZirHqq" name="Page-1">
        <mxGraphModel dx="633" dy="602" grid="1" gridSize="10" guides="1" tooltips="1" connect="1" arrows="1" fold="1" page="1" pageScale="1" pageWidth="827" pageHeight="1169" math="0" shadow="0">
            <root>
                <mxCell id="0"/>
                <mxCell id="1" parent="0"/>
                <mxCell id="2" value="Join the Discussion" style="rounded=1;whiteSpace=wrap;html=1;fillColor=#a20025;fontColor=#ffffff;gradientColor=#AA17FF;gradientDirection=west;fontSize=41;fontFamily=Lucida Console;strokeWidth=10;strokeColor=#000000;shadow=1;glass=1;sketch=0;" parent="1" vertex="1">
                    <mxGeometry x="70" y="465" width="560" height="120" as="geometry"/>
                </mxCell>
            </root>
        </mxGraphModel>
    </diagram>
</mxfile>